<svg xmlns="http://www.w3.org/2000/svg" width="50" height="50" viewBox="0 0 50 50">
  <g id="Grupo_119" data-name="Grupo 119" transform="translate(-68 -20)">
    <g id="Elipse_9745" data-name="Elipse 9745" transform="translate(68 20)" fill="none" stroke="#36ebd8" stroke-width="2">
      <circle cx="25" cy="25" r="25" stroke="none"/>
      <circle cx="25" cy="25" r="24" fill="none"/>
    </g>
    <g id="Grupo_111" data-name="Grupo 111" transform="translate(21.987 -296.446)">
      <text id="o" transform="translate(63.638 351.992)" fill="#36ebd8" stroke="#36ebd8" stroke-width="1" font-size="16" font-family="Comfortaa" font-weight="700"><tspan x="0" y="0">o</tspan></text>
      <g id="Elipse_9748" data-name="Elipse 9748" transform="translate(68.836 337.052) rotate(7)" fill="#36ebd8" stroke="#37ecd8" stroke-width="5">
        <ellipse cx="1.57" cy="2.248" rx="1.57" ry="2.248" stroke="none"/>
        <ellipse cx="1.57" cy="2.248" rx="0.93" ry="0.252" fill="none"/>
      </g>
      <g id="Elipse_9749" data-name="Elipse 9749" transform="translate(74.142 337.992) rotate(33)" fill="#36ebd8" stroke="#37ecd8" stroke-width="5">
        <ellipse cx="1.57" cy="2.248" rx="1.57" ry="2.248" stroke="none"/>
        <ellipse cx="1.57" cy="2.248" rx="0.93" ry="0.252" fill="none"/>
      </g>
      <g id="Elipse_9750" data-name="Elipse 9750" transform="translate(76.781 342.544) rotate(51)" fill="#36ebd8" stroke="#37ecd8" stroke-width="5">
        <ellipse cx="1.275" cy="1.826" rx="1.275" ry="1.826" stroke="none"/>
        <ellipse cx="1.275" cy="1.826" rx="1.225" ry="0.674" fill="none"/>
      </g>
      <g id="Elipse_9751" data-name="Elipse 9751" transform="translate(67.9 342.46) rotate(167)" fill="#36ebd8" stroke="#37ecd8" stroke-width="5">
        <ellipse cx="1.275" cy="1.826" rx="1.275" ry="1.826" stroke="none"/>
        <ellipse cx="1.275" cy="1.826" rx="1.225" ry="0.674" fill="none"/>
      </g>
    </g>
    <path id="Trazado_190820" data-name="Trazado 190820" d="M5379.784,376.354c1.2-.892,3.183-2.6,3.183-2.6s.033-7.957,0-7.945a3.156,3.156,0,0,1,1.654-1.038c.813-.073,1.886,1.038,1.886,1.038,0-.057,0,5.143,0,5.143l6.756-5.892,13.14,11.292s1,1.077.279,1.549-3.171.338-3.171.338V390.19s.342,3.015-1.992,2.9-16.391,0-16.391,0-3.133.6-3-2.148.244-11.922.244-11.922V377.9h-2.584S5378.583,377.246,5379.784,376.354Z" transform="translate(-5300.097 -334.316)" fill="none" stroke="#36ebd8" stroke-linecap="round" stroke-linejoin="round" stroke-width="2"/>
  </g>
</svg>
